<?xml version="1.0" encoding="UTF-8"?>
<svg id="Layer_3" data-name="Layer 3" xmlns="http://www.w3.org/2000/svg" viewBox="0 0 2048 2048">
  <defs>
    <style>
      .cls-1 {
        fill: #492532;
        stroke-width: 0px;
      }
    </style>
  </defs>
  <path class="cls-1" d="m1597.8,1896.57c-19.22-1.35-47.54-2.88-75.76-5.47-21.65-1.98-36.96,7.07-52.74,21.44-29.61,26.96-59.48,54.8-93.3,75.72-80.56,49.82-165.52,45.16-249.34,7.84-56.44-25.13-112.92-32.49-171.8-11.98-27.8,9.68-54.69,22.39-82.97,30.16-90.71,24.93-171.66,2.41-243.81-55.27-18.54-14.82-35.86-31.47-52.02-48.87-12.26-13.2-25.95-19.57-43.48-18.77-35.67,1.64-71.33,3.99-107.02,4.83-37.99.9-74.35-8.18-109.17-22.67-45.22-18.81-60.4-50.75-48.73-98.51,66.54-272.23,165.05-532.37,295.95-780.13,25.94-49.09,55.21-96.41,82.08-145.02,3.46-6.27,4.52-16.46,2-23.04-29.47-76.77-56.29-154.29-71.39-235.39-1.87-10.03-5.19-20.24-4.6-30.18,1.89-31.44-17.45-47.14-41.65-59.69-50.32-26.09-100.77-51.95-151.13-77.98-26.95-13.93-40.59-39.34-31.09-68.03,22.83-68.9,46.01-138.11,92.91-195.56,63.15-77.36,145.29-121.7,243.71-135.45,44.07-6.15,63.81,7.15,80.56,47.73,62.18,150.68,253.54,238.07,418,123.57,48.22-33.57,83.88-77.34,103.48-133.48,8.85-25.34,28.89-38.71,57.85-38.74,48.12-.06,92.61,14.48,135.47,35.01,103.21,49.45,164.66,133.76,200.3,239.71,5.6,16.64,12.74,32.78,17.86,49.55,10.75,35.2-.59,61.12-32.8,77.6-49.45,25.3-99.07,50.28-148.22,76.14-22.13,11.65-36.81,26.75-39.56,55.74-8.42,88.77-37.39,172.58-71.19,254.53-7.22,17.5-6.52,30.32,3.1,46.98,95.96,166.14,180.38,337.89,247.25,517.96,48.55,130.75,90.62,263.53,123.79,399.03,11.86,48.44-4.25,79.17-50.37,99.42-39.28,17.25-80.78,21.66-132.2,21.26ZM455.66,347.27c7.54,4.05,14.39,7.86,21.35,11.47,57.86,30.03,115.56,60.36,173.74,89.77,13.05,6.6,19.44,13.59,18.6,29.51-3.15,59.54,6.39,117.84,24.01,174.45,15.13,48.62,33.51,96.23,50.18,144.38,12.74,36.78,9.77,70.55-10.97,105.49-42.2,71.12-83.53,143.02-120.37,217.01-103.13,207.16-181.08,423.88-239.86,647.66-4.59,17.48.44,23.54,15.86,23.6,43.54.15,87.16.9,130.61-1.32,52.14-2.67,97.51,8.06,132.26,50.63,12.43,15.23,27.79,28.38,43.14,40.87,60.73,49.42,126.41,52.15,195.95,20.08,45.83-21.13,93.79-32.88,144.88-31.34,48.65,1.47,93.39,16.15,137.37,35.35,58.76,25.65,116.18,24.23,169.46-13.98,19.68-14.11,39.57-29.54,54.58-48.22,36.85-45.85,85.16-55.36,139.85-53.02,42.33,1.81,84.79.58,127.19.38,14.51-.07,17.78-7.38,13.66-21.01-16.89-55.8-32.42-112.02-49.72-167.69-74.95-241.17-175.18-471.27-304.87-688.13-17.39-29.08-28.44-58.24-22.62-91.6,3.08-17.64,9.33-34.96,15.96-51.7,38.18-96.53,68.74-194.58,65.34-300.22-.18-5.52,5.17-13.59,10.23-16.5,24.56-14.1,49.81-27.02,74.98-40.04,41.71-21.57,83.54-42.89,127.01-65.18-8.63-20.13-16.62-39.33-25.04-58.35-33-74.49-87.58-125.67-165.01-151.85-33.47-11.32-33.53-11.13-50.31,18.96-89,159.61-284.66,232.87-455.95,170.79-5.06-1.83-10.35-3.02-18.79-5.45v598.86c-20.99-20.6-38.05-37.33-55.39-54.34-12.1,13.11-22.31,24.17-36.04,39.05-2.03-19.15-4.72-33.5-4.87-47.89-.58-54.46-.4-108.93-.4-163.4-.01-138.44.15-276.87-.27-415.31-.03-8.29-1.96-19.57-7.46-24.37-37.37-32.64-65.81-71.75-88.2-115.58-4.02-7.88-8.54-11.08-17.41-7.69-23.22,8.86-47.76,15.04-69.75,26.25-77.15,39.31-115.92,108.68-142.89,189.63Z"/>
</svg>